<?xml version="1.0" encoding="UTF-8"?>
<svg version="1.1" xmlns="http://www.w3.org/2000/svg" width="1080" height="1080">
<path d="M0 0 C356.4 0 712.8 0 1080 0 C1080 356.4 1080 712.8 1080 1080 C723.6 1080 367.2 1080 0 1080 C0 723.6 0 367.2 0 0 Z " fill="#FFFEFE" transform="translate(0,0)"/>
<path d="M0 0 C169.62 0 339.24 0 514 0 C512.34683252 4.95950244 510.48543293 8.86322334 507.8125 13.25 C506.90501595 14.76618915 505.99885194 16.28316888 505.09375 17.80078125 C504.35125 19.04335693 504.35125 19.04335693 503.59375 20.31103516 C500.6209771 25.32667865 497.72060528 30.38418227 494.8125 35.4375 C493.85694214 37.09604004 493.85694214 37.09604004 492.88208008 38.78808594 C491.57299343 41.06024082 490.26415738 43.33254009 488.95556641 45.60498047 C485.80667949 51.07169975 482.6532151 56.53577646 479.5 62 C475.10469732 69.61695748 470.71175686 77.23526416 466.32250977 84.85571289 C464.4551236 88.09443432 462.58323214 91.33052052 460.7109375 94.56640625 C458.19525861 98.91679348 455.70392602 103.28003473 453.2265625 107.65234375 C452.00533383 109.78913423 450.78398428 111.92585563 449.5625 114.0625 C449.01972412 115.0313916 448.47694824 116.0002832 447.91772461 116.99853516 C443.38324657 124.88945334 438.09542526 132.88065053 429.9375 137.375 C429.09703125 137.84035156 428.2565625 138.30570313 427.390625 138.78515625 C420.78261328 142.14314913 415.0142948 144.12001991 407.52725029 144.13422108 C406.43377592 144.13867892 405.34030155 144.14313676 404.21369159 144.14772969 C403.0178923 144.14754533 401.82209301 144.14736097 400.59005737 144.14717102 C398.67806319 144.15268605 398.67806319 144.15268605 396.72744286 144.1583125 C393.19128217 144.168311 389.65513845 144.17204582 386.11896563 144.17470181 C382.30421258 144.17861121 378.48947289 144.18818905 374.67472839 144.19691467 C365.46348332 144.21666035 356.25223717 144.22674255 347.04097623 144.23564246 C342.70097322 144.24002817 338.36097143 144.24539422 334.02096939 144.25063133 C319.59027548 144.26764114 305.15958232 144.28213502 290.72887993 144.28938007 C286.98559442 144.2912899 283.24230892 144.29321024 279.49902344 144.29516602 C278.56867394 144.29564976 277.63832444 144.2961335 276.67978252 144.2966319 C261.61078716 144.30493115 246.5418712 144.3302674 231.47291051 144.36274669 C215.99491766 144.39583512 200.51696514 144.41383042 185.03893673 144.41702431 C176.3514171 144.41918768 167.66401329 144.42791096 158.97652817 144.45348549 C151.57758172 144.4752168 144.17877925 144.48323095 136.77980451 144.47351871 C133.00724803 144.46898112 129.23498846 144.47082835 125.46247292 144.49028015 C121.3653891 144.51122234 117.26896062 144.50090389 113.17184448 144.48774719 C111.39822204 144.50420106 111.39822204 144.50420106 109.58876884 144.52098733 C97.64494378 144.428582 85.83973197 140.49588215 77.02832031 132.12744141 C71.70400243 126.23708766 67.78092262 119.98989164 63.9375 113.0625 C62.95878122 111.33251117 61.98004509 109.60253188 61.00027466 107.87313843 C59.99283499 106.09189447 58.99000359 104.30811613 57.98779297 102.52392578 C54.87279179 96.98861677 51.68190988 91.49701354 48.5 86 C47.24965675 83.8335314 45.99965753 81.66686421 44.75 79.5 C44.13125 78.4275 43.5125 77.355 42.875 76.25 C37.25 66.5 37.25 66.5 35.37402344 63.24829102 C34.12729744 61.08731012 32.88055273 58.92634002 31.63378906 56.76538086 C28.45854117 51.26181149 25.28364505 45.75803968 22.109375 40.25390625 C21.4687915 39.14337891 20.82820801 38.03285156 20.16821289 36.88867188 C18.90384799 34.69626926 17.64000103 32.50356786 16.37670898 30.31054688 C13.47120517 25.26933721 10.55642826 20.23418434 7.61328125 15.21484375 C7.09540039 14.32917725 6.57751953 13.44351074 6.04394531 12.53100586 C5.08211292 10.88774342 4.11681477 9.24650284 3.14746094 7.60766602 C0 2.22318174 0 2.22318174 0 0 Z " fill="#FFC81E" transform="translate(283,698)"/>
<path d="M0 0 C1.2804949 -0.0055344 2.56098981 -0.01106879 3.88028759 -0.0167709 C7.40497661 -0.03142556 10.92921432 -0.02140467 14.4538883 -0.00703418 C18.26648599 0.00412904 22.07902312 -0.00788454 25.89161682 -0.01687622 C33.34852017 -0.03077405 40.80525362 -0.02327834 48.2621488 -0.00820064 C56.95356161 0.00870114 65.64493258 0.00544398 74.33635675 0.00170528 C89.84772076 -0.00416688 105.35900348 0.00997342 120.87034607 0.03465271 C135.90813748 0.05857572 150.9458203 0.06565452 165.98362732 0.05516052 C182.37609344 0.04374161 198.7685094 0.04183296 215.16097492 0.05625862 C216.91011138 0.05778439 218.65924785 0.05930475 220.40838432 0.06081963 C221.26889885 0.06157744 222.12941338 0.06233525 223.0160041 0.06311603 C229.06880854 0.06785101 235.12159052 0.06601304 241.17439461 0.06175423 C248.55383077 0.0568188 255.93316445 0.06285105 263.3125772 0.08264852 C267.07486173 0.0924946 270.83699047 0.09765478 274.59928322 0.08975601 C278.68319749 0.08135764 282.76669926 0.09632833 286.85058594 0.11352539 C288.03182102 0.10751535 289.21305611 0.1015053 290.4300862 0.09531313 C303.66377804 0.19653533 315.06242542 4.25684841 324.8447113 13.35398865 C331.5467951 20.48843878 336.02862585 30.1095506 340.86180115 38.56370544 C341.84751726 40.28009225 342.83323745 41.99647673 343.81919861 43.71272278 C344.83285939 45.4778812 345.84545247 47.24364877 346.8578949 49.00950623 C350.01472852 54.51315624 353.18935234 60.00654746 356.36180115 65.50120544 C357.61188108 67.66782599 358.8618809 69.83449277 360.11180115 72.00120544 C360.73055115 73.07370544 361.34930115 74.14620544 361.98680115 75.25120544 C367.61180115 85.00120544 367.61180115 85.00120544 369.48875427 88.25486755 C370.73192414 90.40951169 371.9754109 92.56397302 373.21922302 94.71824646 C376.11163261 99.72874665 379.00115342 104.74083179 381.87876892 109.75984192 C382.88728429 111.51849293 383.89684885 113.27653753 384.90672302 115.03440857 C386.16530633 117.22592775 387.42197102 119.41855048 388.67625427 121.61253357 C392.13965614 127.6376919 395.74870334 133.52238565 399.5766449 139.32371521 C400.86180115 141.50120544 400.86180115 141.50120544 400.86180115 143.50120544 C231.24180115 143.50120544 61.62180115 143.50120544 -113.13819885 143.50120544 C-111.69600314 139.89571617 -110.34972517 136.96551849 -108.4077301 133.67698669 C-107.85995911 132.74451111 -107.31218811 131.81203552 -106.74781799 130.8513031 C-105.85824402 129.34769226 -105.85824402 129.34769226 -104.95069885 127.81370544 C-103.67407219 125.64087196 -102.39805075 123.4676828 -101.12257385 121.29417419 C-100.46321838 120.17188416 -99.80386292 119.04959412 -99.12452698 117.89329529 C-95.9578766 112.48554696 -92.82831127 107.05659714 -89.70069885 101.62620544 C-89.07912903 100.54766296 -88.4575592 99.46912048 -87.81715393 98.3578949 C-86.55435465 96.16651407 -85.29174079 93.97502637 -84.02931213 91.78343201 C-80.28086656 85.27760934 -76.52725704 78.77476462 -72.77442932 72.27146912 C-68.93229948 65.6128159 -65.09382913 58.95206875 -61.25758362 52.2900238 C-59.36953234 49.01474515 -57.4769872 45.74210037 -55.58351135 42.46995544 C-53.45586143 38.79247806 -51.34501951 35.10665101 -49.25538635 31.40745544 C-40.91658979 16.73876129 -32.55290002 7.11108749 -16.21232998 1.33062923 C-10.83090976 -0.12131857 -5.54275709 -0.04515523 0 0 Z " fill="#FFC81E" transform="translate(396.13819885253906,237.49879455566406)"/>
<path d="M0 0 C11.88 0 23.76 0 36 0 C39.17399644 12.46927171 42.25507618 24.9295586 45 37.5 C46.86489839 46.03802306 48.84108938 54.53150805 51 63 C53.10382611 71.26415577 55.0428063 79.54594647 56.875 87.875 C60.43163298 103.95098107 64.22893289 119.97296477 68 136 C68.33 91.12 68.66 46.24 69 0 C79.89 0 90.78 0 102 0 C102 80.85 102 161.7 102 245 C90.12 245 78.24 245 66 245 C61.74851026 228.16410061 57.63851761 211.31865266 53.77685547 194.38964844 C52.39011609 188.33889748 50.97524226 182.29472254 49.5625 176.25 C49.27205811 175.00516846 48.98161621 173.76033691 48.68237305 172.4777832 C47.32842411 166.67637147 45.97181394 160.87561145 44.60646057 155.07687378 C44.14115672 153.09991538 43.67676687 151.12274436 43.21264648 149.14550781 C42.6384407 146.70042216 42.06260153 144.25571911 41.48461914 141.81152344 C39.15978619 131.90028268 37.09922429 121.9713154 35 112 C34.67 155.89 34.34 199.78 34 245 C22.78 245 11.56 245 0 245 C0 164.15 0 83.3 0 0 Z " fill="#FFC81F" transform="translate(323,417)"/>
<path d="M0 0 C16.17 0 32.34 0 49 0 C50.22573714 6.12868571 51.36209818 12.04980448 52.078125 18.22265625 C52.21567451 19.36497963 52.21567451 19.36497963 52.35600281 20.53038025 C52.65753708 23.04067789 52.95369189 25.5515806 53.25 28.0625 C53.46643253 29.87049612 53.68332246 31.67843754 53.90063477 33.48632812 C54.36303112 37.33463477 54.82380111 41.1831314 55.28369141 45.03173828 C56.3580982 54.00410961 57.46103206 62.97298892 58.56219482 71.94210815 C59.06711198 76.05604574 59.57090575 80.17012059 60.07470703 84.28419495 C61.10948541 92.73418299 62.14507986 101.18407104 63.18081665 109.63394165 C63.57213524 112.82675044 63.96332399 116.01957512 64.35449219 119.21240234 C64.86375048 123.36904027 65.37358086 127.52560748 65.88378906 131.68212891 C66.98998073 140.70051114 68.09051096 149.71939034 69.16015625 158.7421875 C71.22055676 176.17000323 71.22055676 176.17000323 73.85180664 193.51879883 C75.21347476 201.83043584 76.14930024 210.19871034 77.125 218.5625 C77.21144775 219.30233124 77.29789551 220.04216248 77.38696289 220.80441284 C78.32540388 228.86418237 79.19252422 236.92524216 80 245 C68.12 245 56.24 245 44 245 C40.9766117 221.36260059 40.9766117 221.36260059 39.8125 210 C39.72887207 209.20754883 39.64524414 208.41509766 39.55908203 207.59863281 C39.48415527 206.84420898 39.40922852 206.08978516 39.33203125 205.3125 C39.23498901 204.34763672 39.23498901 204.34763672 39.13598633 203.36328125 C38.9375252 199.91426192 39 196.45472447 39 193 C29.76 193 20.52 193 11 193 C10.731875 196.196875 10.46375 199.39375 10.1875 202.6875 C8.97979033 216.81195212 7.48399245 230.90207173 6 245 C-5.88 245 -17.76 245 -30 245 C-30 234.87409013 -30 234.87409013 -29.49682617 231.14892578 C-29.38638474 230.30999786 -29.2759433 229.47106995 -29.16215515 228.60671997 C-29.04032364 227.72845551 -28.91849213 226.85019104 -28.79296875 225.9453125 C-28.6669075 225.0042868 -28.54084625 224.06326111 -28.41096497 223.09371948 C-28.14386129 221.10832783 -27.87393232 219.12331442 -27.60131836 217.13867188 C-27.19351034 214.16877085 -26.79418423 211.19783217 -26.39648438 208.2265625 C-25.1848932 199.24107479 -23.90844581 190.2735818 -22.453125 181.32421875 C-21.00068325 172.35524069 -19.8986694 163.3600642 -18.86569214 154.33425903 C-18.33881353 149.73479704 -17.79880217 145.13688322 -17.2578125 140.5390625 C-17.15075485 139.6284053 -17.0436972 138.71774811 -16.93339539 137.77949524 C-16.01607642 130.02879691 -14.99776968 122.29501986 -13.9375 114.5625 C-12.37552281 103.14420451 -11.0289114 91.71177441 -9.74972534 80.25930786 C-8.48467435 68.95508653 -7.05238628 57.68367516 -5.50878906 46.41357422 C-3.41670602 30.97151572 -1.73445349 15.48619188 0 0 Z " fill="#FFC81F" transform="translate(470,417)"/>
<path d="M0 0 C16.17 0 32.34 0 49 0 C51.24901601 13.49409604 51.24901601 13.49409604 51.89453125 18.94921875 C52.0426123 20.18671875 52.19069336 21.42421875 52.34326172 22.69921875 C52.41929626 23.34552246 52.49533081 23.99182617 52.57366943 24.65771484 C52.82276319 26.77472528 53.07529393 28.89130371 53.32861328 31.0078125 C53.60234934 33.29538384 53.87585996 35.58298005 54.14837646 37.87069702 C55.10566351 45.90651945 56.08486366 53.93962882 57.06628418 61.97253418 C57.37820536 64.52624238 57.68964594 67.08000881 58.00097656 69.63378906 C59.16664443 79.19262192 60.33719842 88.75084462 61.51171875 98.30859375 C61.89945033 101.46562901 62.28711038 104.62267304 62.67471313 107.77972412 C62.93268033 109.88036923 63.19079735 111.98099595 63.44906616 114.081604 C64.71514854 124.38326309 65.97510726 134.68520933 67.1640625 144.99609375 C67.29587166 146.13893074 67.29587166 146.13893074 67.43034363 147.30485535 C67.6005549 148.78177551 67.77073702 150.25869904 67.94088745 151.73562622 C69.05330144 161.38586227 70.22097595 170.99874447 71.85400391 180.57617188 C73.45300128 190.24372296 74.45773786 200.00145077 75.5546875 209.73632812 C75.71451916 211.14456813 75.87467085 212.55277185 76.03515625 213.9609375 C76.11299347 214.64778625 76.19083069 215.33463501 76.27102661 216.04229736 C76.88358587 221.31574318 77.69645944 226.53879612 78.63061523 231.76416016 C79.13120258 236.14934497 79 240.58633559 79 245 C67.12 245 55.24 245 43 245 C42.4252491 239.36282264 41.85394037 233.72550051 41.29101562 228.0871582 C41.09896193 226.17354935 40.90499158 224.26013177 40.70898438 222.34692383 C40.42580606 219.5794337 40.14978106 216.81130378 39.875 214.04296875 C39.78750488 213.20291794 39.70000977 212.36286713 39.60986328 211.49736023 C38.9989427 205.24176243 39 199.36252482 39 193 C29.43 193 19.86 193 10 193 C10 196.63 10 200.26 10 204 C9.76610522 207.19374463 9.49981617 210.35417713 9.16015625 213.53515625 C9.07374374 214.38049423 8.98733124 215.22583221 8.89830017 216.0967865 C8.7168754 217.8589931 8.53274174 219.62092285 8.34594727 221.38256836 C8.05990638 224.08702207 7.7842587 226.79239914 7.50976562 229.49804688 C7.33133616 231.21881305 7.15232143 232.93951866 6.97265625 234.66015625 C6.89032242 235.46840347 6.80798859 236.2766507 6.72315979 237.10939026 C6.11548089 242.76903822 6.11548089 242.76903822 5 245 C-6.88 245 -18.76 245 -31 245 C-30.566875 241.101875 -30.13375 237.20375 -29.6875 233.1875 C-29.55819092 232.00309326 -29.42888184 230.81868652 -29.2956543 229.59838867 C-28.56336861 223.13992819 -27.65845298 216.73296001 -26.609375 210.3203125 C-24.77519869 199.03493902 -23.39951506 187.69629255 -22.01065063 176.34896851 C-21.2479126 170.11726629 -20.47547774 163.88676675 -19.703125 157.65625 C-19.55345779 156.4473259 -19.40379059 155.23840179 -19.24958801 153.99284363 C-18.15979768 145.21623064 -17.0121211 136.44973502 -15.8125 127.6875 C-14.10263462 115.13710605 -12.66196492 102.56268675 -11.24327087 89.97692871 C-7.85630211 59.93695488 -3.93667323 29.97239844 0 0 Z " fill="#FFC81E" transform="translate(692,417)"/>
<path d="M0 0 C69.91947343 0 69.91947343 0 82.9609375 12.49609375 C90.50336644 21.7579653 94.32797489 33.13738545 94.25878906 45.00146484 C94.2622937 45.7571022 94.26579834 46.51273956 94.26940918 47.29127502 C94.27813988 49.7645921 94.27240705 52.23761801 94.265625 54.7109375 C94.26697442 56.44674738 94.26891726 58.18255689 94.27142334 59.91836548 C94.27436313 63.54782731 94.27011498 67.17719033 94.26074219 70.80664062 C94.24936545 75.43524765 94.25590315 80.06362223 94.26788712 84.69222069 C94.27515132 88.27495032 94.27279666 91.85762585 94.26763153 95.44035721 C94.26630673 97.14581963 94.26790127 98.85128713 94.27259064 100.55674362 C94.30604531 116.14510267 93.42153888 129.72629189 83 142 C82.49726562 142.60972656 81.99453125 143.21945312 81.4765625 143.84765625 C76.57621419 149.28584767 70.66551936 152.15443546 64 155 C62.83017578 155.51433594 62.83017578 155.51433594 61.63671875 156.0390625 C52.95758198 159.24689543 45.88003034 158 36 158 C36 186.71 36 215.42 36 245 C24.12 245 12.24 245 0 245 C0 164.15 0 83.3 0 0 Z " fill="#FFC81E" transform="translate(565,417)"/>
<path d="M0 0 C8.58 0 17.16 0 26 0 C26.99257813 1.7428125 27.98515625 3.485625 29.0078125 5.28125 C36.20637171 17.90751393 43.43777205 30.51188682 50.77783203 43.05664062 C55.67887383 51.43624363 60.53784474 59.8396178 65.37060547 68.25878906 C68.50892788 73.71823935 71.67863982 79.1544606 74.91796875 84.5546875 C75.55089844 85.616875 76.18382812 86.6790625 76.8359375 87.7734375 C78.02555832 89.76617786 79.2240582 91.75365907 80.43359375 93.734375 C85.53558335 102.31057657 89.59196573 111.30977391 89.5 121.4375 C89.51546875 123.13712891 89.51546875 123.13712891 89.53125 124.87109375 C88.5972896 135.68353516 83.70636879 145.07110414 78.1875 154.1875 C77.18108709 155.89013006 76.17469565 157.59277325 75.16958618 159.2961731 C74.1345019 161.04671791 73.09380047 162.79382598 72.05224609 164.54052734 C68.80860427 169.99245168 65.66033786 175.49953599 62.5 181 C61.25299411 183.16168333 60.00559716 185.32314111 58.7578125 187.484375 C56.22860804 191.86797794 53.70293925 196.25359311 51.1796875 200.640625 C45.04089825 211.30855676 38.87714476 221.96050697 32.625 232.5625 C32.07118652 233.50319336 31.51737305 234.44388672 30.94677734 235.41308594 C30.44098145 236.26805664 29.93518555 237.12302734 29.4140625 238.00390625 C28.9701416 238.75486572 28.5262207 239.5058252 28.06884766 240.27954102 C27 242 27 242 26 243 C17.42 243 8.84 243 0 243 C0 162.81 0 82.62 0 0 Z " fill="#FFC81D" transform="translate(793,418)"/>
<path d="M0 0 C8.25 0 16.5 0 25 0 C25 80.19 25 160.38 25 243 C16.75 243 8.5 243 0 243 C-3.77701271 237.33448094 -7.29000461 231.88455562 -10.5 225.9375 C-14.45177777 218.72499071 -18.5303404 211.59602118 -22.6875 204.5 C-28.28889423 194.93707326 -33.85476594 185.35487709 -39.36914062 175.74145508 C-42.50168752 170.28936686 -45.6694746 164.86440461 -48.91796875 159.48046875 C-49.55089844 158.42279297 -50.18382812 157.36511719 -50.8359375 156.27539062 C-52.02370697 154.29452193 -53.22203626 152.31992493 -54.43359375 150.35351562 C-61.86965834 137.89810743 -65.44694554 124.90673716 -62.22265625 110.53515625 C-59.30329908 101.46540958 -54.48897734 93.63873403 -49.54541016 85.56005859 C-46.55546979 80.6070547 -43.6940728 75.57903938 -40.8125 70.5625 C-39.51712429 68.31368847 -38.22154897 66.06499192 -36.92578125 63.81640625 C-36.27561035 62.68734863 -35.62543945 61.55829102 -34.95556641 60.39501953 C-31.80667949 54.92830024 -28.65320401 49.46422995 -25.5 44 C-21.95878425 37.86289106 -18.41784889 31.72562239 -14.87988281 25.5866394 C-13.50193062 23.19573403 -12.12365828 20.80501328 -10.74536133 18.41430664 C-9.77459018 16.73016037 -8.80428126 15.04574769 -7.83398438 13.36132812 C-6.94936523 11.82702148 -6.94936523 11.82702148 -6.046875 10.26171875 C-5.27102051 8.91533325 -5.27102051 8.91533325 -4.47949219 7.54174805 C-3.00858327 5.01474595 -1.50434482 2.50724137 0 0 Z " fill="#FFC81D" transform="translate(261,418)"/>
<path d="M0 0 C15 0 15 0 21 4 C24.93626765 8.34346775 25.12482128 12.3363684 25.16113281 18.05029297 C25.17074036 19.27191132 25.1803479 20.49352966 25.19024658 21.75216675 C25.19449646 23.0688736 25.19874634 24.38558044 25.203125 25.7421875 C25.20888162 27.1121521 25.21463928 28.4821167 25.22039795 29.8520813 C25.23088849 32.72186659 25.236744 35.59162403 25.24023438 38.46142578 C25.24571777 42.12880377 25.26975028 45.79581027 25.29820633 49.46307182 C25.3168792 52.29246073 25.32204075 55.1217609 25.32357025 57.95120621 C25.32804758 59.95749465 25.34666929 61.9637355 25.36553955 63.96994019 C25.36253845 65.19786285 25.35953735 66.42578552 25.35644531 67.69091797 C25.36009094 68.76695282 25.36373657 69.84298767 25.36749268 70.95162964 C24.73517502 76.19673661 22.53124541 80.03219861 18.4375 83.3125 C17.53837891 84.04919922 17.53837891 84.04919922 16.62109375 84.80078125 C10.99598944 88.962003 9.6404159 87 0 87 C0 58.29 0 29.58 0 0 Z " fill="#FFFEFC" transform="translate(601,453)"/>
<path d="M0 0 C4.81630366 3.45120362 9.63024609 8.50552079 10.95703125 14.40234375 C11.73982977 22.23032896 9.30026696 27.63642922 5.20703125 34.21484375 C0.37077521 38.91675935 -4.30088924 40.65838559 -11.04296875 40.96484375 C-17.75233096 40.71948246 -21.8806822 38.5646303 -26.5703125 33.875 C-31.59277434 28.15376086 -32.51143715 23.92073381 -32.34765625 16.44140625 C-31.80630354 11.04175997 -30.13899648 7.40025955 -26.20703125 3.65234375 C-18.22844503 -2.70606979 -9.24068746 -5.12156445 0 0 Z " fill="#FFFCF4" transform="translate(808.04296875,801.59765625)"/>
<path d="M0 0 C0.33 0 0.66 0 1 0 C2.30565338 12.46484405 3.60964951 24.92986024 4.91151428 37.39510059 C5.51603635 43.18283872 6.12113495 48.97051538 6.72753906 54.75805664 C7.31243536 60.34052922 7.89583299 65.92315654 8.47817993 71.50589561 C8.70092092 73.63865458 8.9242072 75.77135666 9.14804077 77.90400124 C9.46080303 80.88482792 9.7716478 83.86584865 10.08203125 86.84692383 C10.17553864 87.7338089 10.26904602 88.62069397 10.36538696 89.53445435 C10.4495285 90.34633713 10.53367004 91.15821991 10.62036133 91.9947052 C10.69410477 92.69987683 10.76784821 93.40504847 10.84382629 94.13158894 C10.97906872 95.74958502 11 97.37636154 11 99 C4.07 99 -2.86 99 -10 99 C-6.83595359 65.98224511 -3.44057098 32.98991115 0 0 Z " fill="#FFFEFB" transform="translate(716,476)"/>
<path d="M0 0 C2.91524689 2.91524689 2.67402501 6.2001274 3.05322266 10.1340332 C3.14129684 10.97485443 3.22937103 11.81567566 3.32011414 12.68197632 C3.61000131 15.47076939 3.88715486 18.26067188 4.1640625 21.05078125 C4.36228584 22.98657799 4.56121899 24.92230217 4.76083374 26.85795593 C5.17796036 30.92032212 5.58930481 34.98321665 5.99609375 39.04663086 C6.51734366 44.25283391 7.04841093 49.4579715 7.58326149 54.66279316 C8.0927704 59.62510985 8.59735062 64.58792403 9.1015625 69.55078125 C9.19818806 70.49776697 9.29481361 71.44475269 9.39436722 72.42043495 C9.66747967 75.1059529 9.93708941 77.79179836 10.20556641 80.4777832 C10.28658096 81.27017899 10.36759552 82.06257477 10.45106506 82.87898254 C10.82171326 86.62436145 11 90.22643137 11 94 C4.4 94 -2.2 94 -9 94 C-9 88.17397405 -8.89487079 82.67479749 -8.28149414 76.92919922 C-8.20507187 76.17835052 -8.1286496 75.42750183 -8.0499115 74.65390015 C-7.79939414 72.20368685 -7.54239237 69.75420375 -7.28515625 67.3046875 C-7.10782958 65.5855779 -6.93086944 63.86643046 -6.7542572 62.14724731 C-6.38460312 58.5579945 -6.01198929 54.9690665 -5.63696289 51.38037109 C-5.15765411 46.79347263 -4.68353034 42.20605802 -4.21134281 37.61842155 C-3.75859734 33.22198852 -3.30320276 28.82583103 -2.84765625 24.4296875 C-2.76173784 23.59829128 -2.67581944 22.76689507 -2.58729744 21.91030502 C-2.34228945 19.54405274 -2.09539095 17.17800548 -1.84790039 14.81201172 C-1.74108444 13.77693481 -1.74108444 13.77693481 -1.6321106 12.72094727 C-1.18412728 8.46259348 -0.62848445 4.234477 0 0 Z " fill="#FFFEFB" transform="translate(494,481)"/>
<path d="M0 0 C4.81630366 3.45120362 9.63024609 8.50552079 10.95703125 14.40234375 C11.73982977 22.23032896 9.30026696 27.63642922 5.20703125 34.21484375 C0.37077521 38.91675935 -4.30088924 40.65838559 -11.04296875 40.96484375 C-17.75233096 40.71948246 -21.8806822 38.5646303 -26.5703125 33.875 C-31.59277434 28.15376086 -32.51143715 23.92073381 -32.34765625 16.44140625 C-31.80630354 11.04175997 -30.13899648 7.40025955 -26.20703125 3.65234375 C-18.22844503 -2.70606979 -9.24068746 -5.12156445 0 0 Z M-24.04296875 7.40234375 C-27.97586194 12.8493085 -27.67808896 17.91000384 -27.04296875 24.40234375 C-25.30905995 29.7003984 -22.43109072 32.20267148 -18.04296875 35.40234375 C-13.26610932 36.99463023 -8.58454646 37.39668029 -3.81640625 35.53125 C0.93311866 32.81850637 4.26383342 29.68300448 5.95703125 24.40234375 C7.06857106 17.97625423 5.68403339 12.71632745 1.95703125 7.40234375 C-3.107471 2.58489039 -7.46957293 1.99194194 -14.24609375 2.0546875 C-18.45936696 2.57840442 -21.21072301 4.28533417 -24.04296875 7.40234375 Z " fill="#FFCC2E" transform="translate(808.04296875,801.59765625)"/>
<path d="M0 0 C2.0625 -0.04125 4.125 -0.0825 6.25 -0.125 C7.99023438 -0.15980469 7.99023438 -0.15980469 9.765625 -0.1953125 C12.84681133 -0.00925052 14.4785909 0.28304047 17 2 C18.52491998 5.04983996 18.23562548 7.6423369 18 11 C16.625 12.9375 16.625 12.9375 15 14 C14.34 14 13.68 14 13 14 C14.98 17.63 16.96 21.26 19 25 C17.35 25 15.7 25 14 25 C12.0859375 22.84765625 12.0859375 22.84765625 10.375 20.0625 C8.04979785 15.98733914 8.04979785 15.98733914 4 14 C4 17.63 4 21.26 4 25 C2.68 25 1.36 25 0 25 C0 16.75 0 8.5 0 0 Z " fill="#FFC924" transform="translate(789,808)"/>
<path d="M0 0 C0.33 0 0.66 0 1 0 C1 46.2 1 92.4 1 140 C-0.80330533 136.39338934 -1.46599103 133.91606575 -2 130 C-1.34 130 -0.68 130 0 130 C0 87.1 0 44.2 0 0 Z " fill="#FFEFC2" transform="translate(391,417)"/>
<path d="M0 0 C2.30694043 3.46041065 2.62056512 5.90210331 3 10 C2.67 10.33 2.34 10.66 2 11 C1.89180852 12.61915924 1.8531521 14.24300788 1.84178162 15.86573792 C1.8319928 16.91888184 1.82220398 17.97202576 1.81211853 19.05708313 C1.80636307 20.22233017 1.8006076 21.38757721 1.79467773 22.58813477 C1.78477814 23.80747711 1.77487854 25.02681946 1.76467896 26.28311157 C1.73842821 29.63624606 1.7165923 32.98935593 1.69667697 36.34253049 C1.67485523 39.84328389 1.64744795 43.34399333 1.62062073 46.8447113 C1.57064213 53.47806466 1.52572255 60.11144235 1.48259836 66.74484342 C1.43327005 74.29493329 1.37833563 81.84497907 1.32291877 89.39502633 C1.20901944 104.92997683 1.10219781 120.46496784 1 136 C0.67 136 0.34 136 0 136 C0 91.12 0 46.24 0 0 Z " fill="#FFEFC2" transform="translate(357,526)"/>
<path d="M0 0 C7.75 -0.125 7.75 -0.125 10 1 C9.125 5.875 9.125 5.875 8 7 C5.32941149 7.14115161 2.67567762 7.04247107 0 7 C0 4.69 0 2.38 0 0 Z " fill="#FFFAEB" transform="translate(793,812)"/>
</svg>
